<?xml version="1.0" standalone="no"?>
<!DOCTYPE svg PUBLIC "-//W3C//DTD SVG 20010904//EN"
 "http://www.w3.org/TR/2001/REC-SVG-20010904/DTD/svg10.dtd">
<svg version="1.0" xmlns="http://www.w3.org/2000/svg"
 width="2084.000000pt" height="2084.000000pt" viewBox="0 0 2084.000000 2084.000000"
 preserveAspectRatio="xMidYMid meet">
<metadata>
Created by potrace 1.14, written by Peter Selinger 2001-2017
</metadata>
<g transform="translate(0.000000,2084.000000) scale(0.100000,-0.100000)"
fill="#000000" stroke="none">
<path d="M0 10420 l0 -10420 10420 0 10420 0 0 10420 0 10420 -10420 0 -10420
0 0 -10420z m7740 3673 l0 -1008 81 124 c164 254 328 459 534 670 700 718
1605 1137 2610 1211 88 6 881 10 2148 10 l2007 0 0 -860 0 -860 -1959 0
c-1964 0 -2108 -2 -2306 -36 -373 -63 -723 -221 -1030 -464 -107 -85 -333
-313 -426 -430 -42 -52 -432 -629 -867 -1282 l-792 -1188 0 -2795 0 -2795
-865 0 -865 0 0 5355 0 5355 865 0 865 0 0 -1007z"/>
</g>
</svg>
